<svg width="63" height="42" viewBox="0 0 63 42" fill="none" xmlns="http://www.w3.org/2000/svg">
<path d="M31.5 12C33.5357 6.07876 41.2243 3.05532 57.9643 3.00001C58.2319 2.99927 58.4971 3.03756 58.7445 3.11268C58.9919 3.1878 59.2168 3.29826 59.406 3.43769C59.5952 3.57713 59.7451 3.74278 59.8471 3.92511C59.949 4.10743 60.001 4.30282 60 4.50001V31.5C60 31.8978 59.7855 32.2794 59.4037 32.5607C59.022 32.842 58.5042 33 57.9643 33C41.6786 33 35.3869 35.4197 31.5 39M31.5 12C29.4643 6.07876 21.7757 3.05532 5.03573 3.00001C4.76811 2.99927 4.50294 3.03756 4.2555 3.11268C4.00806 3.1878 3.78325 3.29826 3.59401 3.43769C3.40478 3.57713 3.25486 3.74278 3.15292 3.92511C3.05097 4.10743 2.99901 4.30282 3.00001 4.50001V31.3191C3.00001 32.2453 3.77867 33 5.03573 33C21.3214 33 27.636 35.4375 31.5 39M31.5 12V39" stroke="white" stroke-width="5" stroke-linecap="round" stroke-linejoin="round"/>
</svg>
